<?xml version="1.0" encoding="UTF-8" standalone="no"?><!DOCTYPE svg PUBLIC "-//W3C//DTD SVG 1.1//EN" "http://www.w3.org/Graphics/SVG/1.1/DTD/svg11.dtd">
<svg width="100%" height="100%" viewBox="0 0 274 60" version="1.1" xmlns="http://www.w3.org/2000/svg" xmlns:xlink="http://www.w3.org/1999/xlink" xml:space="preserve" xmlns:serif="http://www.serif.com/" style="fill-rule:evenodd;clip-rule:evenodd;stroke-linejoin:round;stroke-miterlimit:2;">
    <g transform="matrix(0.222073,0,0,0.222073,15.8138,-262.613)">
        <g transform="matrix(0.716495,0,0,0.712205,86.6422,362.894)">
            <g transform="matrix(1,0,0,1,91.3348,878.016)">
                <path d="M132.908,275.487L144.131,275.492L144.136,394.433L273.45,275.485L289.29,275.485L193.384,363.037L302.25,481.116L286.698,481.117L185.321,370.234L144.138,407.965L144.138,481.117L132.906,481.117L132.908,275.487Z"/>
            </g>
			<g transform="matrix(1,0,0,1,-5.06556,878.016)">
                <path d="M488.585,287.58L410.825,481.116L398.154,481.117L481.962,275.485L495.786,275.485L579.306,481.117L566.922,481.117L489.45,287.581L488.585,287.58Z"/>
            </g>
        </g>
		<g transform="matrix(0.881952,0,0,0.876671,79.3477,140.249)">
            <g transform="matrix(0.81213,0,0,0.81213,-19.2118,967.493)">
                <path d="M696.523,481.116L707.754,481.117L707.754,290.749L708.617,290.749L792.426,481.117L804.521,481.117L888.33,290.749L889.194,290.749L889.194,481.117L900.426,481.117L900.426,275.485L883.434,275.485L799.05,467.869L798.186,467.869L713.514,275.485L696.522,275.485L696.523,481.116Z"/>
            </g>
			<g transform="matrix(0.788353,0,0,0.788353,-88.232,975.919)">
                <path d="M1222.99,366.961C1222.99,314.218 1180.23,271.461 1127.49,271.461L1125.8,271.461C1073.05,271.461 1030.3,314.218 1030.3,366.961L1030.3,389.571C1030.3,442.314 1073.05,485.071 1125.8,485.071L1127.49,485.071C1180.23,485.071 1222.99,442.314 1222.99,389.571L1222.99,366.961ZM1212.37,367.016C1212.37,344.34 1203.36,322.593 1187.33,306.559C1171.29,290.524 1149.54,281.516 1126.87,281.516L1126.42,281.516C1103.75,281.516 1082,290.524 1065.97,306.559C1049.93,322.593 1040.92,344.34 1040.92,367.016L1040.92,389.462C1040.92,412.138 1049.93,433.886 1065.97,449.92C1082,465.954 1103.75,474.962 1126.42,474.962L1126.87,474.962C1149.54,474.962 1171.29,465.954 1187.33,449.92C1203.36,433.886 1212.37,412.138 1212.37,389.462L1212.37,367.016Z"/>
            </g>
        </g>
		<g transform="matrix(0.881952,0,0,0.876671,111.777,139.299)">
            <g transform="matrix(0.81213,0,0,0.81213,-183.788,968.526)">
                <path d="M1352.87,275.485C1352.87,275.485 1406.96,275.494 1450.01,275.502C1478.76,275.508 1502.07,298.822 1502.07,327.576C1502.06,330.434 1502.06,333.286 1502.06,336.096C1502.06,359.253 1484.74,378.747 1461.74,381.468L1461.74,382.045C1498.35,392.019 1497.13,409.964 1500.98,453.372C1501.76,462.139 1502.47,470.529 1509.26,481.117L1496.87,481.117C1491.83,473.655 1489.19,462.342 1488.66,448.409C1487.83,426.583 1486.62,411.06 1479.04,401.802C1465.94,385.801 1449.77,387.151 1364.11,386.931L1364.1,481.116L1352.87,481.117L1352.87,275.485ZM1364.12,285.903L1364.11,376.552C1364.11,376.552 1409.87,376.592 1446.34,376.624C1458.08,376.634 1469.34,371.981 1477.64,363.688C1485.94,355.395 1490.61,344.143 1490.61,332.409C1490.61,330.556 1490.61,328.701 1490.61,326.856C1490.61,315.999 1486.3,305.586 1478.63,297.908C1470.95,290.23 1460.54,285.916 1449.68,285.914C1412.73,285.909 1364.12,285.903 1364.12,285.903Z"/>
            </g>
			<g transform="matrix(0.812397,0,0,0.812397,717.739,968.411)">
                <path d="M488.585,287.58L410.825,481.116L398.154,481.117L481.962,275.485L495.786,275.485L579.306,481.117L566.922,481.117L489.45,287.581L488.585,287.58Z"/>
            </g>
        </g>
		<g transform="matrix(3.21329,0,0,3.19405,-246.408,-911.106)">
            <path d="M411.28,694.795L437.804,679.262L437.752,671.963L411.358,687.673L411.28,694.795Z" style="fill:rgb(246,148,0);"/>
        </g>
    </g>
	<g transform="matrix(0.0970638,-1.56908e-18,1.56908e-18,0.0970638,-434.784,-142.641)">
        <g transform="matrix(128,0,0,128,5197.97,2050.86)">
            <path d="M0.072,-0.714L0.072,0L0.32,0C0.432,0 0.518,-0.033 0.578,-0.098C0.635,-0.16 0.664,-0.247 0.664,-0.357C0.664,-0.469 0.637,-0.556 0.584,-0.616C0.526,-0.682 0.441,-0.714 0.328,-0.714L0.072,-0.714ZM0.154,-0.643L0.315,-0.643C0.409,-0.643 0.477,-0.619 0.521,-0.57C0.562,-0.524 0.583,-0.453 0.583,-0.357C0.583,-0.264 0.56,-0.193 0.516,-0.145C0.469,-0.096 0.399,-0.071 0.306,-0.071L0.154,-0.071L0.154,-0.643Z" style="fill-rule:nonzero;"/>
        </g>
		<g transform="matrix(128,0,0,128,5324.25,2052.27)">
            <path d="M0.128,-0.712C0.111,-0.712 0.097,-0.707 0.085,-0.695C0.073,-0.685 0.068,-0.671 0.068,-0.653C0.068,-0.636 0.073,-0.622 0.085,-0.61C0.097,-0.599 0.111,-0.593 0.128,-0.593C0.145,-0.593 0.159,-0.599 0.171,-0.61C0.183,-0.622 0.189,-0.636 0.189,-0.653C0.189,-0.671 0.183,-0.685 0.171,-0.695C0.159,-0.707 0.145,-0.712 0.128,-0.712ZM0.088,-0.517L0.088,0L0.168,0L0.168,-0.517L0.088,-0.517Z" style="fill-rule:nonzero;"/>
        </g>
		<g transform="matrix(128,0,0,128,5393.07,2051.95)">
            <path d="M0.275,-0.531C0.203,-0.531 0.146,-0.506 0.104,-0.455C0.062,-0.407 0.042,-0.346 0.042,-0.27C0.042,-0.195 0.062,-0.134 0.104,-0.086C0.146,-0.037 0.203,-0.012 0.275,-0.012C0.353,-0.012 0.411,-0.047 0.449,-0.116L0.449,-0.025C0.449,0.089 0.397,0.147 0.293,0.147C0.246,0.147 0.211,0.138 0.188,0.121C0.165,0.105 0.15,0.079 0.144,0.044L0.064,0.044C0.073,0.1 0.096,0.142 0.133,0.17C0.169,0.198 0.223,0.212 0.293,0.212C0.45,0.212 0.529,0.129 0.529,-0.036L0.529,-0.517L0.449,-0.517L0.449,-0.428C0.411,-0.497 0.353,-0.531 0.275,-0.531ZM0.287,-0.465C0.338,-0.465 0.378,-0.447 0.408,-0.409C0.436,-0.375 0.45,-0.328 0.45,-0.27C0.45,-0.214 0.436,-0.168 0.408,-0.133C0.378,-0.097 0.338,-0.079 0.286,-0.079C0.23,-0.079 0.189,-0.099 0.161,-0.137C0.136,-0.171 0.124,-0.216 0.124,-0.27C0.124,-0.328 0.138,-0.375 0.166,-0.409C0.195,-0.447 0.235,-0.465 0.287,-0.465Z" style="fill-rule:nonzero;"/>
        </g>
		<g transform="matrix(128,0,0,128,5502.08,2052.28)">
            <path d="M0.128,-0.712C0.111,-0.712 0.097,-0.707 0.085,-0.695C0.073,-0.685 0.068,-0.671 0.068,-0.653C0.068,-0.636 0.073,-0.622 0.085,-0.61C0.097,-0.599 0.111,-0.593 0.128,-0.593C0.145,-0.593 0.159,-0.599 0.171,-0.61C0.183,-0.622 0.189,-0.636 0.189,-0.653C0.189,-0.671 0.183,-0.685 0.171,-0.695C0.159,-0.707 0.145,-0.712 0.128,-0.712ZM0.088,-0.517L0.088,0L0.168,0L0.168,-0.517L0.088,-0.517Z" style="fill-rule:nonzero;"/>
        </g>
		<g transform="matrix(128,0,0,128,5574.09,2052.09)">
            <path d="M0.2,-0.684L0.121,-0.651L0.121,-0.517L0.017,-0.517L0.017,-0.45L0.121,-0.45L0.121,-0.121C0.121,-0.082 0.129,-0.053 0.146,-0.033C0.164,-0.011 0.195,0 0.237,0L0.315,0L0.315,-0.067L0.249,-0.067C0.231,-0.067 0.218,-0.072 0.211,-0.08C0.203,-0.088 0.2,-0.102 0.2,-0.121L0.2,-0.45L0.328,-0.45L0.328,-0.517L0.2,-0.517L0.2,-0.684Z" style="fill-rule:nonzero;"/>
        </g>
		<g transform="matrix(128,0,0,128,5660.7,2051.02)">
            <path d="M0.287,-0.531C0.225,-0.531 0.176,-0.519 0.138,-0.495C0.096,-0.469 0.069,-0.428 0.058,-0.374L0.137,-0.368C0.145,-0.401 0.162,-0.426 0.189,-0.442C0.213,-0.458 0.244,-0.465 0.282,-0.465C0.372,-0.465 0.417,-0.422 0.417,-0.335L0.417,-0.308L0.293,-0.306C0.215,-0.305 0.155,-0.29 0.113,-0.262C0.065,-0.232 0.042,-0.188 0.042,-0.129C0.042,-0.087 0.058,-0.052 0.09,-0.025C0.121,0.001 0.162,0.014 0.214,0.014C0.262,0.014 0.305,0.003 0.343,-0.018C0.375,-0.036 0.402,-0.059 0.422,-0.087L0.422,0L0.497,0L0.497,-0.332C0.497,-0.392 0.481,-0.439 0.451,-0.473C0.415,-0.512 0.361,-0.531 0.287,-0.531ZM0.417,-0.248L0.417,-0.204C0.417,-0.164 0.398,-0.128 0.361,-0.097C0.323,-0.065 0.28,-0.049 0.231,-0.049C0.199,-0.049 0.173,-0.057 0.153,-0.072C0.133,-0.088 0.124,-0.107 0.124,-0.131C0.124,-0.206 0.182,-0.244 0.298,-0.246L0.417,-0.248Z" style="fill-rule:nonzero;"/>
        </g>
		<g transform="matrix(128,0,0,128,5764.33,2052.12)">
            <rect x="0.078" y="-0.728" width="0.079" height="0.728" style="fill-rule:nonzero;"/>
        </g>
    </g>
	<g transform="matrix(0.0970638,-1.56908e-18,1.56908e-18,0.0970638,-15.9896,-163.931)">
        <g transform="matrix(128,0,0,128,1603.29,2271.14)">
            <path d="M0.072,-0.714L0.072,0L0.154,0L0.154,-0.292L0.363,-0.292C0.527,-0.292 0.61,-0.363 0.61,-0.504C0.61,-0.644 0.528,-0.714 0.364,-0.714L0.072,-0.714ZM0.154,-0.643L0.359,-0.643C0.416,-0.643 0.458,-0.632 0.486,-0.608C0.514,-0.587 0.528,-0.552 0.528,-0.504C0.528,-0.456 0.514,-0.421 0.487,-0.398C0.459,-0.375 0.417,-0.363 0.359,-0.363L0.154,-0.363L0.154,-0.643Z" style="fill:rgb(246,148,0);fill-rule:nonzero;"/>
        </g>
		<g transform="matrix(128,0,0,128,1719.43,2271.14)">
            <path d="M0.289,-0.531C0.253,-0.531 0.222,-0.52 0.195,-0.498C0.173,-0.481 0.155,-0.457 0.141,-0.427L0.141,-0.517L0.062,-0.517L0.062,0L0.141,0L0.141,-0.274C0.141,-0.322 0.154,-0.363 0.182,-0.397C0.209,-0.433 0.243,-0.45 0.283,-0.45C0.308,-0.45 0.334,-0.447 0.36,-0.439L0.36,-0.519C0.341,-0.527 0.317,-0.531 0.289,-0.531Z" style="fill:rgb(246,148,0);fill-rule:nonzero;"/>
        </g>
		<g transform="matrix(128,0,0,128,1806.13,2271.14)">
            <path d="M0.293,-0.531C0.215,-0.531 0.154,-0.505 0.108,-0.451C0.064,-0.4 0.042,-0.336 0.042,-0.258C0.042,-0.181 0.064,-0.117 0.108,-0.067C0.154,-0.013 0.215,0.014 0.293,0.014C0.37,0.014 0.432,-0.013 0.479,-0.067C0.522,-0.117 0.544,-0.181 0.544,-0.258C0.544,-0.336 0.522,-0.4 0.478,-0.451C0.432,-0.505 0.37,-0.531 0.293,-0.531ZM0.293,-0.464C0.347,-0.464 0.39,-0.443 0.422,-0.401C0.449,-0.363 0.463,-0.316 0.463,-0.258C0.463,-0.202 0.449,-0.154 0.422,-0.116C0.39,-0.074 0.347,-0.053 0.293,-0.053C0.238,-0.053 0.195,-0.074 0.165,-0.116C0.137,-0.154 0.124,-0.201 0.124,-0.258C0.124,-0.316 0.137,-0.363 0.165,-0.401C0.195,-0.443 0.238,-0.464 0.293,-0.464Z" style="fill:rgb(246,148,0);fill-rule:nonzero;"/>
        </g>
		<g transform="matrix(128,0,0,128,1916.39,2271.14)">
            <path d="M0.444,-0.728L0.444,-0.422C0.404,-0.495 0.347,-0.531 0.273,-0.531C0.199,-0.531 0.142,-0.504 0.1,-0.448C0.061,-0.398 0.042,-0.336 0.042,-0.26C0.042,-0.182 0.061,-0.118 0.1,-0.068C0.142,-0.014 0.201,0.014 0.277,0.014C0.355,0.014 0.413,-0.019 0.449,-0.085L0.449,0L0.524,0L0.524,-0.728L0.444,-0.728ZM0.29,-0.465C0.336,-0.465 0.374,-0.447 0.403,-0.409C0.431,-0.372 0.446,-0.323 0.446,-0.263L0.446,-0.253C0.446,-0.195 0.433,-0.148 0.408,-0.112C0.379,-0.072 0.339,-0.052 0.287,-0.052C0.231,-0.052 0.189,-0.073 0.161,-0.113C0.136,-0.149 0.124,-0.198 0.124,-0.26C0.124,-0.322 0.136,-0.37 0.162,-0.405C0.19,-0.445 0.233,-0.465 0.29,-0.465Z" style="fill:rgb(246,148,0);fill-rule:nonzero;"/>
        </g>
		<g transform="matrix(128,0,0,128,2021.53,2271.14)">
            <path d="M0.062,-0.517L0.062,-0.197C0.062,-0.057 0.124,0.014 0.25,0.014C0.32,0.014 0.376,-0.018 0.418,-0.08L0.418,0L0.498,0L0.498,-0.517L0.418,-0.517L0.418,-0.202C0.412,-0.158 0.395,-0.122 0.367,-0.094C0.34,-0.068 0.309,-0.054 0.275,-0.054C0.228,-0.054 0.194,-0.067 0.173,-0.091C0.152,-0.115 0.142,-0.152 0.142,-0.201L0.142,-0.517L0.062,-0.517Z" style="fill:rgb(246,148,0);fill-rule:nonzero;"/>
        </g>
		<g transform="matrix(128,0,0,128,2125.89,2271.14)">
            <path d="M0.285,-0.531C0.208,-0.531 0.147,-0.504 0.103,-0.449C0.062,-0.399 0.042,-0.335 0.042,-0.256C0.042,-0.177 0.062,-0.113 0.103,-0.064C0.146,-0.012 0.206,0.014 0.284,0.014C0.348,0.014 0.399,-0.003 0.438,-0.036C0.478,-0.07 0.503,-0.121 0.515,-0.187L0.435,-0.187C0.423,-0.098 0.372,-0.053 0.284,-0.053C0.232,-0.053 0.192,-0.072 0.165,-0.108C0.137,-0.144 0.124,-0.194 0.124,-0.257C0.124,-0.32 0.138,-0.37 0.166,-0.407C0.195,-0.445 0.235,-0.464 0.285,-0.464C0.326,-0.464 0.359,-0.455 0.385,-0.435C0.41,-0.415 0.426,-0.385 0.433,-0.345L0.512,-0.345C0.503,-0.408 0.479,-0.455 0.439,-0.486C0.4,-0.516 0.349,-0.531 0.285,-0.531Z" style="fill:rgb(246,148,0);fill-rule:nonzero;"/>
        </g>
		<g transform="matrix(128,0,0,128,2235.64,2271.14)">
            <path d="M0.2,-0.684L0.121,-0.651L0.121,-0.517L0.017,-0.517L0.017,-0.45L0.121,-0.45L0.121,-0.121C0.121,-0.082 0.129,-0.053 0.146,-0.033C0.164,-0.011 0.195,0 0.237,0L0.315,0L0.315,-0.067L0.249,-0.067C0.231,-0.067 0.218,-0.072 0.211,-0.08C0.203,-0.088 0.2,-0.102 0.2,-0.121L0.2,-0.45L0.328,-0.45L0.328,-0.517L0.2,-0.517L0.2,-0.684Z" style="fill:rgb(246,148,0);fill-rule:nonzero;"/>
        </g>
    </g>
	<g transform="matrix(0.0970638,-1.56908e-18,1.56908e-18,0.0970638,68.8439,-183.392)">
        <g transform="matrix(128,0,0,128,1551.16,2471.64)">
            <path d="M0.312,-0.728C0.238,-0.728 0.177,-0.712 0.13,-0.68C0.077,-0.646 0.051,-0.597 0.051,-0.535C0.051,-0.475 0.078,-0.429 0.133,-0.397C0.156,-0.385 0.211,-0.365 0.297,-0.339C0.377,-0.316 0.428,-0.299 0.448,-0.287C0.495,-0.262 0.519,-0.227 0.519,-0.182C0.519,-0.144 0.501,-0.114 0.465,-0.092C0.429,-0.07 0.381,-0.059 0.323,-0.059C0.259,-0.059 0.211,-0.073 0.178,-0.099C0.142,-0.128 0.12,-0.174 0.113,-0.236L0.032,-0.236C0.038,-0.148 0.069,-0.083 0.125,-0.04C0.173,-0.004 0.239,0.014 0.323,0.014C0.408,0.014 0.475,-0.004 0.525,-0.039C0.575,-0.075 0.6,-0.125 0.6,-0.187C0.6,-0.252 0.57,-0.302 0.511,-0.338C0.481,-0.356 0.419,-0.379 0.325,-0.407C0.256,-0.427 0.212,-0.442 0.194,-0.452C0.153,-0.474 0.133,-0.503 0.133,-0.539C0.133,-0.58 0.15,-0.61 0.184,-0.63C0.214,-0.648 0.255,-0.656 0.308,-0.656C0.366,-0.656 0.411,-0.644 0.443,-0.618C0.474,-0.593 0.494,-0.555 0.503,-0.503L0.584,-0.503C0.577,-0.578 0.55,-0.635 0.502,-0.673C0.456,-0.71 0.392,-0.728 0.312,-0.728Z" style="fill-rule:nonzero;"/>
        </g>
		<g transform="matrix(128,0,0,128,1674.28,2471.64)">
            <path d="M0.2,-0.684L0.121,-0.651L0.121,-0.517L0.017,-0.517L0.017,-0.45L0.121,-0.45L0.121,-0.121C0.121,-0.082 0.129,-0.053 0.146,-0.033C0.164,-0.011 0.195,0 0.237,0L0.315,0L0.315,-0.067L0.249,-0.067C0.231,-0.067 0.218,-0.072 0.211,-0.08C0.203,-0.088 0.2,-0.102 0.2,-0.121L0.2,-0.45L0.328,-0.45L0.328,-0.517L0.2,-0.517L0.2,-0.684Z" style="fill-rule:nonzero;"/>
        </g>
		<g transform="matrix(128,0,0,128,1756.83,2471.64)">
            <path d="M0.062,-0.517L0.062,-0.197C0.062,-0.057 0.124,0.014 0.25,0.014C0.32,0.014 0.376,-0.018 0.418,-0.08L0.418,0L0.498,0L0.498,-0.517L0.418,-0.517L0.418,-0.202C0.412,-0.158 0.395,-0.122 0.367,-0.094C0.34,-0.068 0.309,-0.054 0.275,-0.054C0.228,-0.054 0.194,-0.067 0.173,-0.091C0.152,-0.115 0.142,-0.152 0.142,-0.201L0.142,-0.517L0.062,-0.517Z" style="fill-rule:nonzero;"/>
        </g>
		<g transform="matrix(128,0,0,128,1863.7,2471.64)">
            <path d="M0.444,-0.728L0.444,-0.422C0.404,-0.495 0.347,-0.531 0.273,-0.531C0.199,-0.531 0.142,-0.504 0.1,-0.448C0.061,-0.398 0.042,-0.336 0.042,-0.26C0.042,-0.182 0.061,-0.118 0.1,-0.068C0.142,-0.014 0.201,0.014 0.277,0.014C0.355,0.014 0.413,-0.019 0.449,-0.085L0.449,0L0.524,0L0.524,-0.728L0.444,-0.728ZM0.29,-0.465C0.336,-0.465 0.374,-0.447 0.403,-0.409C0.431,-0.372 0.446,-0.323 0.446,-0.263L0.446,-0.253C0.446,-0.195 0.433,-0.148 0.408,-0.112C0.379,-0.072 0.339,-0.052 0.287,-0.052C0.231,-0.052 0.189,-0.073 0.161,-0.113C0.136,-0.149 0.124,-0.198 0.124,-0.26C0.124,-0.322 0.136,-0.37 0.162,-0.405C0.19,-0.445 0.233,-0.465 0.29,-0.465Z" style="fill-rule:nonzero;"/>
        </g>
		<g transform="matrix(128,0,0,128,1970.56,2471.64)">
            <path d="M0.128,-0.712C0.111,-0.712 0.097,-0.707 0.085,-0.695C0.073,-0.685 0.068,-0.671 0.068,-0.653C0.068,-0.636 0.073,-0.622 0.085,-0.61C0.097,-0.599 0.111,-0.593 0.128,-0.593C0.145,-0.593 0.159,-0.599 0.171,-0.61C0.183,-0.622 0.189,-0.636 0.189,-0.653C0.189,-0.671 0.183,-0.685 0.171,-0.695C0.159,-0.707 0.145,-0.712 0.128,-0.712ZM0.088,-0.517L0.088,0L0.168,0L0.168,-0.517L0.088,-0.517Z" style="fill-rule:nonzero;"/>
        </g>
		<g transform="matrix(128,0,0,128,2037.88,2471.64)">
            <path d="M0.293,-0.531C0.215,-0.531 0.154,-0.505 0.108,-0.451C0.064,-0.4 0.042,-0.336 0.042,-0.258C0.042,-0.181 0.064,-0.117 0.108,-0.067C0.154,-0.013 0.215,0.014 0.293,0.014C0.37,0.014 0.432,-0.013 0.479,-0.067C0.522,-0.117 0.544,-0.181 0.544,-0.258C0.544,-0.336 0.522,-0.4 0.478,-0.451C0.432,-0.505 0.37,-0.531 0.293,-0.531ZM0.293,-0.464C0.347,-0.464 0.39,-0.443 0.422,-0.401C0.449,-0.363 0.463,-0.316 0.463,-0.258C0.463,-0.202 0.449,-0.154 0.422,-0.116C0.39,-0.074 0.347,-0.053 0.293,-0.053C0.238,-0.053 0.195,-0.074 0.165,-0.116C0.137,-0.154 0.124,-0.201 0.124,-0.258C0.124,-0.316 0.137,-0.363 0.165,-0.401C0.195,-0.443 0.238,-0.464 0.293,-0.464Z" style="fill-rule:nonzero;"/>
        </g>
    </g>
	<g transform="matrix(0.0559268,-9.4145e-19,9.4145e-19,0.0559268,-29.0365,-6.93787)">
        <g transform="matrix(1.81058,0,0,1.81058,-915.834,-477.918)">
            <path d="M1339.7,338.914L1356.27,904.39C1207.09,905.291 1123.04,911.403 851.85,925.008C851.85,925.008 854.893,595.557 851.85,359.703C851.7,348.069 1172.28,319.847 1339.7,338.914Z" style="fill:rgb(246,148,0);"/>
        </g>
		<g transform="matrix(1.81058,0,0,1.81058,-179.098,-448.649)">
            <path d="M681.381,523.268L684.447,552.222L613.97,566.778L621.107,611.649L753.663,600.038L737.243,435.236L514.351,473.556L546.489,689.527L838.85,664.975L833.656,694.703C833.656,694.703 595.234,714.606 535.319,719.607C527.705,720.243 520.905,714.862 519.773,707.306C512.887,661.352 490.309,510.663 483.276,463.727C482.104,455.907 487.414,448.59 495.212,447.279C542.821,439.276 697.846,413.217 747.31,404.902C751.273,404.236 755.335,405.244 758.526,407.686C761.717,410.128 763.752,413.785 764.145,417.784C768.2,459.055 779.242,571.438 783.196,611.679C783.575,615.532 782.397,619.376 779.926,622.355C777.454,625.334 773.894,627.202 770.038,627.541C734.663,630.657 644.735,638.576 610.643,641.578C603.094,642.243 596.306,636.983 595.066,629.506C591.976,610.875 586.376,577.106 583.248,558.245C581.979,550.594 586.957,543.298 594.544,541.689C621.96,535.873 681.381,523.268 681.381,523.268Z"/>
        </g>
		<g transform="matrix(1.81058,0,0,1.81058,-179.098,-448.649)">
            <path d="M505.174,590.836C505.174,590.836 425.552,727.214 392.585,783.68C389.86,788.348 389.957,794.144 392.838,798.718C395.719,803.292 400.904,805.883 406.292,805.442C502.01,797.596 815.898,771.869 876.267,766.921C882.33,766.424 887.439,762.195 889.059,756.331C902.363,708.183 960.972,496.077 976.474,439.974C977.471,436.368 976.982,432.513 975.118,429.269C973.254,426.026 970.169,423.663 966.551,422.709C966.113,422.593 965.674,422.477 965.237,422.362C957.82,420.405 950.209,424.781 948.169,432.176C931.469,492.716 863.641,738.6 863.641,738.6L431.667,774.518L512.174,635.572C512.174,635.572 502.89,589.876 505.174,590.836Z"/>
        </g>
		<g transform="matrix(1.8004,0.31581,-0.373605,2.12989,-13.6719,-871.766)">
            <path d="M882.529,421.159C882.529,418.058 881.072,415.085 878.479,412.893C875.885,410.7 872.367,409.469 868.7,409.469L868.697,409.469C865.029,409.469 861.511,410.7 858.918,412.893C856.324,415.085 854.867,418.058 854.867,421.159C854.867,444.16 854.867,495.051 854.867,518.051C854.867,521.152 856.324,524.125 858.918,526.318C861.511,528.51 865.029,529.742 868.697,529.742L868.7,529.742C872.367,529.742 875.885,528.51 878.479,526.318C881.072,524.125 882.529,521.152 882.529,518.051C882.529,495.051 882.529,444.16 882.529,421.159Z"/>
        </g>
    </g>
</svg>
